<svg width="20" height="20" viewBox="0 0 20 20" xmlns="http://www.w3.org/2000/svg"><path d="M16.5774 20H3.42256C1.53517 20 0 18.4648 0 16.5774V3.42256C0 1.53517 1.53517 0 3.42256 0H16.5774C18.4648 0 20 1.53517 20 3.42256V16.5774C19.9998 18.4646 18.4646 19.9998 16.5772 19.9998L16.5774 20ZM3.42256 1.36903C2.29018 1.36903 1.36903 2.29018 1.36903 3.42256V16.5774C1.36903 17.7098 2.29018 18.631 3.42256 18.631H16.5774C17.7098 18.631 18.631 17.7098 18.631 16.5774V3.42256C18.631 2.29018 17.7098 1.36903 16.5774 1.36903H3.42256Z" /><path d="M12.4826 6.17924C12.4826 7.55017 11.3712 8.66157 10.0002 8.66157C8.62924 8.66157 7.51788 7.55022 7.51788 6.17924C7.51788 4.8083 8.62924 3.6969 10.0002 3.6969C11.3712 3.6969 12.4826 4.80826 12.4826 6.17924Z" /><path d="M13.8697 16.3042H6.13031V13.6118C6.13031 11.317 7.5738 9.45679 9.35441 9.45679H10.6457C12.4263 9.45679 13.8698 11.317 13.8698 13.6118C13.8696 13.6118 13.8696 16.3042 13.8696 16.3042H13.8697Z" /></svg>
