<svg width="21" height="20" xmlns="http://www.w3.org/2000/svg"><path d="M10.423 0c-.025 0-.051 0-.077.002h-.006a.8.8 0 0 0-.575.297L2.66 6.696.264 8.85a.8.8 0 0 0 1.072 1.188l.264-.237v7c0 .598-.003 1.058.043 1.473.047.415.155.85.492 1.189.338.338.774.446 1.19.493.414.047.874.044 1.474.044h.8c.598 0 1.059.003 1.474-.044.415-.047.85-.155 1.188-.493.338-.338.446-.774.492-1.189.047-.415.044-.875.044-1.473v-1.6c0-.597.004-1.035.033-1.294a1.28 1.28 0 0 1 .042-.23c.032-.01.1-.027.23-.042.259-.029.696-.033 1.294-.033.598 0 1.036.004 1.295.033.13.015.198.032.23.042.01.032.027.1.042.23.029.26.033.697.033 1.295v1.6c0 .598-.003 1.059.043 1.474.047.415.156.85.494 1.188.338.338.774.446 1.189.492.415.047.874.044 1.472.044h.8c.6 0 1.06.003 1.474-.044.416-.046.851-.155 1.19-.493.337-.338.444-.774.491-1.189.047-.415.044-.875.044-1.473v-7l.264.238a.8.8 0 0 0 1.071-1.189l-2.394-2.154L11.03.302 11.03.3a.8.8 0 0 0-.606-.3zm-.027 1.885 3.255 2.929 3.416 3.074a1.6 1.6 0 0 1 .526 1.185v7.728c0 .598-.003 1.036-.032 1.295-.015.13-.033.198-.043.23-.031.01-.1.027-.229.042-.26.029-.697.033-1.295.033h-.8c-.597 0-1.035-.004-1.294-.033a1.277 1.277 0 0 1-.23-.042 1.25 1.25 0 0 1-.042-.23c-.03-.26-.033-.697-.033-1.295v-1.6c0-.597.003-1.057-.044-1.472-.046-.415-.154-.85-.492-1.189-.337-.338-.773-.446-1.188-.493-.415-.047-.876-.044-1.475-.044-.599 0-1.06-.003-1.474.044-.415.047-.851.155-1.189.493-.337.339-.445.774-.492 1.19-.046.414-.043.874-.043 1.472v1.6c0 .597-.004 1.035-.033 1.294-.015.13-.033.198-.042.23-.032.01-.1.027-.23.042-.26.029-.697.033-1.295.033h-.8c-.598 0-1.035-.004-1.294-.033a1.249 1.249 0 0 1-.23-.042c-.01-.032-.028-.1-.042-.23-.03-.26-.033-.697-.033-1.295V9.073a1.6 1.6 0 0 1 .53-1.189l3.412-3.07 3.255-2.929z" /></svg>
